{"title":"The.Bible.-.Samson.and.Delilah.[1996].DvdRip.XviD-KnÃƒÂ£","uid":6411978,"size":2142941184,"categoryP":"video","categoryS":"movies","magnet":"?xt=urn:btih:58c2e15107be64a5b3e09d708b9d9c0f913c0e8b&amp;dn=The.Bible.-.Samson.and.Delilah.%5B1996%5D.DvdRip.XviD-Kn%C3%83%C2%A3&amp;tr=udp%3A%2F%2Ftracker.openbittorrent.com%3A80&amp;tr=udp%3A%2F%2Fopen.demonii.com%3A1337&amp;tr=udp%3A%2F%2Ftracker.coppersurfer.tk%3A6969&amp;tr=udp%3A%2F%2Fexodus.desync.com%3A6969","seeders":1,"leechers":2,"uploader":"Jon.Pson","files":1,"time":1306019703,"description":"Mara and her husband Manoa are both upstanding and religious Israelites living under the harsh and unjust rule of the Philistines...\n\nGeneral\nComplete name                    : H:\\Movies\\The.Bible.-.Samson.and.Delilah.[1996].DvdRip.XviD-KnÃƒÂ£\\The.Bible.-.Samson.and.Delilah.[1996].DvdRip.XviD-KnÃƒÂ£.avi\nFormat                           : AVI\nFormat/Info                      : Audio Video Interleave\nFormat profile                   : OpenDML\nFile size                        : 2.00 GiB\nDuration                         : 2h 58mn\nOverall bit rate                 : 1 597 Kbps\nWriting application              : VirtualDubMod 1.5.4.1 (build 2178/release)\nWriting library                  : VirtualDubMod build 2178/release\n\nVideo\nID                               : 0\nFormat                           : MPEG-4 Visual\nFormat profile                   : Advanced Simple@L5\nFormat settings, BVOP            : Yes\nFormat settings, QPel            : No\nFormat settings, GMC             : No warppoints\nFormat settings, Matrix          : Custom\nCodec ID                         : XVID\nCodec ID/Hint                    : XviD\nDuration                         : 2h 58mn\nBit rate                         : 1 396 Kbps\nWidth                            : 560 pixels\nHeight                           : 416 pixels\nDisplay aspect ratio             : 4:3\nFrame rate                       : 23.976 fps\nColor space                      : YUV\nChroma subsampling               : 4:2:0\nBit depth                        : 8 bits\nScan type                        : Progressive\nBits/(Pixel*Frame)               : 0.250\nStream size                      : 1.74 GiB (87%)\nWriting library                  : XviD 1.2.1 (UTC 2008-12-04)\n\nAudio\nID                               : 1\nFormat                           : AC-3\nFormat/Info                      : Audio Coding 3\nMode extension                   : CM (complete main)\nCodec ID                         : 2000\nDuration                         : 2h 58mn\nBit rate mode                    : Constant\nBit rate                         : 192 Kbps\nChannel(s)                       : 2 channels\nChannel positions                : Front: L R\nSampling rate                    : 48.0 KHz\nBit depth                        : 16 bits\nStream size                      : 246 MiB (12%)\nAlignment                        : Split accross interleaves\nInterleave, duration             : 96 ms (2.30 video frames)\nInterleave, preload duration     : 96 ms\nLanguage                         : English\n\n","torrent":{"xt":"urn:btih:58c2e15107be64a5b3e09d708b9d9c0f913c0e8b","amp;dn":"The.Bible.-.Samson.and.Delilah.%5B1996%5D.DvdRip.XviD-Kn%C3%83%C2%A3","amp;tr":["udp%3A%2F%2Ftracker.openbittorrent.com%3A80","udp%3A%2F%2Fopen.demonii.com%3A1337","udp%3A%2F%2Ftracker.coppersurfer.tk%3A6969","udp%3A%2F%2Fexodus.desync.com%3A6969"],"infoHash":"58c2e15107be64a5b3e09d708b9d9c0f913c0e8b","infoHashBuffer":{"type":"Buffer","data":[88,194,225,81,7,190,100,165,179,224,157,112,139,157,156,15,145,60,14,139]},"announce":[],"urlList":[]}}